# xmcd CD Database file
#
# Track frame offsets:
# 150
# 19802
# 41408
# 62419
#
# Disc length: 1086 seconds
#
# Revision: 8
# Processed by: cddbd v1.5.2PL0 Copyright (c) Steve Scherf et al.
# Submitted via: Mozilla Thunderbird
#
DISCID=27043c04
DTITLE=Tur Tur - Tur EP
DYEAR=2012
DGENRE=Poprock
TTITLE0=Nach Paris
TTITLE1=Aurora
TTITLE2=Atmen
TTITLE3=Wenn Du Tanzt
EXTD=
EXTT0=
EXTT1=
EXTT2=
EXTT3=
PLAYORDER=
